<?xml version="1.0" encoding="UTF-8" standalone="no"?>
<!-- Created with Inkscape (http://www.inkscape.org/) -->

<svg
   xmlns:dc="http://purl.org/dc/elements/1.1/"
   xmlns:cc="http://creativecommons.org/ns#"
   xmlns:rdf="http://www.w3.org/1999/02/22-rdf-syntax-ns#"
   xmlns:svg="http://www.w3.org/2000/svg"
   xmlns="http://www.w3.org/2000/svg"
   xmlns:sodipodi="http://sodipodi.sourceforge.net/DTD/sodipodi-0.dtd"
   xmlns:inkscape="http://www.inkscape.org/namespaces/inkscape"
   width="650"
   height="250"
   viewBox="0 0 649.99998 250"
   id="svg2"
   version="1.1"
   inkscape:version="0.91 r13725"
   sodipodi:docname="Logo_17_10_7.svg">
  <defs
     id="defs4" />
  <sodipodi:namedview
     id="base"
     pagecolor="#ffffff"
     bordercolor="#666666"
     borderopacity="1.0"
     inkscape:pageopacity="0.0"
     inkscape:pageshadow="2"
     inkscape:zoom="1.4"
     inkscape:cx="288.48495"
     inkscape:cy="74.418207"
     inkscape:document-units="px"
     inkscape:current-layer="layer1"
     showgrid="false"
     units="px"
     inkscape:window-width="1440"
     inkscape:window-height="795"
     inkscape:window-x="0"
     inkscape:window-y="1"
     inkscape:window-maximized="1" />
  <metadata
     id="metadata7">
    <rdf:RDF>
      <cc:Work
         rdf:about="">
        <dc:format>image/svg+xml</dc:format>
        <dc:type
           rdf:resource="http://purl.org/dc/dcmitype/StillImage" />
        <dc:title></dc:title>
      </cc:Work>
    </rdf:RDF>
  </metadata>
  <g
     inkscape:label="Layer 1"
     inkscape:groupmode="layer"
     id="layer1"
     transform="translate(0,-802.36222)">
    <path
       id="path3371"
       style="fill:#ffffff;fill-rule:evenodd;stroke:none;stroke-width:1px;stroke-linecap:butt;stroke-linejoin:miter;stroke-opacity:1;fill-opacity:1"
       d="m 305.597,939.90722 c 0,-31.17222 -35.1,-30.2501 -35.1,-30.2501 l -25.3994,0 0,92.70508 25.3994,0 0,-32.20598 c 0,0 9.70103,8.82482 9.70103,32.20598 l 25.39897,0 c 0,-23.16073 -13.27764,-38.27843 -13.27764,-38.27843 0,0 13.27764,-8.59044 13.27764,-24.17655 z m -35.1,-4.851 0,9.701 c 0,0 9.7015,2.28655 9.7015,-4.8505 0,-7.13705 -9.7015,-4.8505 -9.7015,-4.8505 z m 89.6034,41.9071 c 2e-5,3.23383 -9.7015,3.23383 -9.7015,0 l 10e-5,-67.3062 -25.399,0 0,77.0081 c 0,9.95269 15.44631,15.69698 25.399,15.69698 l 9.701,0 c 9.95278,0 25.3993,-5.7442 25.3993,-15.69698 l 0,-77.0081 -25.3993,0 z m -150.1034,0 c 0,3.23367 -9.701,3.23367 -9.701,0 l 0,-67.3061 -25.3993,-1e-4 0,77.0081 c 0,9.95278 15.44652,15.69698 25.3993,15.69698 l 9.701,0 c 9.95272,0 25.39909,-5.74426 25.39909,-15.69698 l 0,-77.0081 -25.39909,1e-4 z m -70.201,-41.9071 c 0,-3.23367 -9.70098,-3.23367 -9.701,0 l -2.1e-4,41.9071 c -2e-5,3.23374 9.70121,3.23374 9.70121,0 z m 405.5081,-25.3991 -44.80193,0 0,25.3989 9.70183,0.18827 0,67.11791 25.399,0 0,-67.11791 9.7011,-0.18827 z m -54.50345,0 -25.39895,0 0,92.70508 25.39895,0 z m -35.10045,0 -25.3989,0 0.70519,35.4102 -14.23065,-35.4102 -21.57498,0 0,92.70508 25.39914,0 0,-35.40998 13.5253,35.40998 21.5749,0 z m -315.9042,0 -9.701,0 c -9.95271,0 -25.399,5.74439 -25.399,15.6971 l 0,61.311 c 0,9.95269 15.44631,15.69698 25.399,15.69698 l 9.701,0 c 9.95269,0 25.399,-5.74429 25.399,-15.69698 l 0,-61.311 c 0,-9.95271 -15.44629,-15.6971 -25.399,-15.6971 z m 440.609,-57.2949 c -0.3582,-2.99307 -7.37295,-9.7016 -12.7,-9.7015 -5.32704,10e-5 -12.3408,6.70856 -12.699,9.7015 12.10003,6.98595 12.699,15.69739 12.699,15.69739 0,0 0.71695,-8.77897 12.7,-15.69739 z m -81.6739,0 c 55.93605,0 68.9739,46.96189 68.9739,46.96189 0,0 13.1232,-46.96189 68.9741,-46.96189 L 625,877.76122 c -33.89164,0 -44.595,31.896 -44.595,31.896 l 0,65.0871 -12.7,27.61788 -12.699,27.618 0,-120.32298 c 0,0 -10.96904,-31.896 -44.596,-31.896 z m -429.1361,0 c 0.358205,-2.99307 7.372958,-9.7016 12.7,-9.7015 5.327042,10e-5 12.340808,6.70856 12.699,9.7015 -12.100025,6.98595 -12.699,15.69739 -12.699,15.69739 0,0 -0.716946,-8.77897 -12.7,-15.69739 z m 99.56545,25.399 11.6791,-25.399 144.16045,0 144.16045,0 11.6791,25.399 -155.83955,0 z m -17.89155,-25.399 c -55.936043,0 -68.9739,46.96189 -68.9739,46.96189 0,0 -13.123201,-46.96189 -68.9741,-46.96189 L 25,877.76122 c 33.891643,0 44.595,31.896 44.595,31.896 l 0,65.0871 12.7,27.61788 12.699,27.618 0,-120.32298 c 0,0 10.96904,-31.896 44.596,-31.896 z"
       inkscape:connector-curvature="0"
       sodipodi:nodetypes="sccccccccsccscssccssssccsssccssssccsssssscccccccccccccccccccccccccssssssssscscccccccccccccccsccccccccccccccccccccc" />
  </g>
</svg>
