<?xml version="1.0" encoding="UTF-8" standalone="no"?>
<!-- Created with Inkscape (http://www.inkscape.org/) -->

<svg
   xmlns:dc="http://purl.org/dc/elements/1.1/"
   xmlns:cc="http://creativecommons.org/ns#"
   xmlns:rdf="http://www.w3.org/1999/02/22-rdf-syntax-ns#"
   xmlns:svg="http://www.w3.org/2000/svg"
   xmlns="http://www.w3.org/2000/svg"
   xmlns:sodipodi="http://sodipodi.sourceforge.net/DTD/sodipodi-0.dtd"
   xmlns:inkscape="http://www.inkscape.org/namespaces/inkscape"
   width="635"
   height="250"
   viewBox="0 0 635.00001 250"
   id="svg2"
   version="1.1"
   inkscape:version="0.91 r13725"
   sodipodi:docname="YU_001_White.svg">
  <defs
     id="defs4" />
  <sodipodi:namedview
     id="base"
     pagecolor="#ffffff"
     bordercolor="#666666"
     borderopacity="1.0"
     inkscape:pageopacity="0.0"
     inkscape:pageshadow="2"
     inkscape:zoom="1.4498473"
     inkscape:cx="361.53103"
     inkscape:cy="99.345568"
     inkscape:document-units="px"
     inkscape:current-layer="layer1"
     showgrid="false"
     units="px"
     inkscape:window-width="1440"
     inkscape:window-height="795"
     inkscape:window-x="0"
     inkscape:window-y="1"
     inkscape:window-maximized="1" />
  <metadata
     id="metadata7">
    <rdf:RDF>
      <cc:Work
         rdf:about="">
        <dc:format>image/svg+xml</dc:format>
        <dc:type
           rdf:resource="http://purl.org/dc/dcmitype/StillImage" />
        <dc:title></dc:title>
      </cc:Work>
    </rdf:RDF>
  </metadata>
  <g
     inkscape:label="Layer 1"
     inkscape:groupmode="layer"
     id="layer1"
     transform="translate(0,-802.36216)">
    <g
       id="g4292">
      <g
         id="g4284">
        <g
           id="g4288" />
      </g>
    </g>
    <g
       id="g4317">
      <path
         id="path4259"
         style="fill:#ffffff;fill-rule:evenodd;stroke:none;stroke-width:1px;stroke-linecap:butt;stroke-linejoin:miter;stroke-opacity:1;fill-opacity:1"
         d="m 70.771,852.36216 c 0,0 9.017727,4.89097 11.524,14.24451 2.503403,-9.34283 11.524,-14.24451 11.524,-14.24451 0,0 0.03482,-8.80359 -11.524,-8.80359 -11.558821,0 -11.524,8.80359 -11.524,8.80359 z m -56.172878,0 L 25,875.41016 c 45.733688,0 45.771,34.247 45.771,34.247 l -1.4e-4,67.17045 11.524045,25.53459 11.524045,25.5345 5e-5,-118.23954 c 0,0 -0.04889,-34.247 45.771,-34.247 l 10.40168,-23.048 c 0,0 -55.652088,-1.90102 -67.69668,43.05 -12.062225,-45.01684 -67.696878,-43.05 -67.696878,-43.05 z m 215.431138,89.147 0,60.85304 23.04774,0 0,-37.80504 c 8.46712,14.66548 8.804,37.80504 8.804,37.80504 l 23.04803,0 c 0,0 -0.30392,-25.97224 -10.80403,-39.80504 0,0 10.804,-2.82917 10.804,-25.4502 0,-27.79399 -17.607,-27.4498 -17.607,-27.4498 l -9.843,0 -27.44974,0 0,23.048 29.13128,0 c 0,0 2.72046,-0.12727 2.72046,4.402 0,4.52927 -2.72046,4.402 -2.72046,4.402 z m -104.35866,-6.0835 0,41.168 c 0,0 -0.082,2.72044 4.4017,2.7204 4.48375,-4e-5 4.4017,-2.7205 4.4017,-2.7205 l 0,-41.1679 c 0,0 0.16828,-2.7205 -4.4017,-2.7205 -4.56998,0 -4.4017,2.7205 -4.4017,2.7205 z m 414.5844,-25.7685 0,23.04805 c 0,16.31392 15.92605,21.04895 15.92605,21.04895 l 0,48.60844 23.04805,-4e-4 0,-48.60804 c 0,0 15.9259,-4.73504 15.9259,-21.04895 l 0,-23.04805 -23.048,0 0,20.32754 c 0,0 0.18881,2.72041 -4.402,2.72045 -4.59081,4e-5 -4.402,-2.72045 -4.402,-2.72045 l 0,-20.32754 z m -81.31033,0 0,92.70504 23.0481,0 0,-92.70504 z m -63.70336,0 0,92.70504 23.04769,0 0,-19.68546 c 0,0 9.82862,19.68546 31.85208,19.68546 l 0,-92.70504 -23.04808,0 0,57.295 c -9.91327,-9.24201 -8.804,-57.295 -8.804,-57.295 z m -228.91541,0 0,75.74 c 0,0 0.28084,16.96504 27.44988,16.96504 27.16904,0 27.44989,-16.96504 27.44989,-16.96504 l 0,-75.74009 -23.04767,2e-5 0,66.93652 c 0,0 -0.0831,2.72055 -4.402,2.72055 -4.31885,0 -4.402,-2.72055 -4.402,-2.72055 l 0,-66.93647 z m 324.47045,0 0,23.048 8.80355,0 0,69.65704 23.04813,0 0,-69.65704 8.80357,0 0,-23.048 z m -197.06375,-34.247 -1.6e-4,121.35264 c 0,0 -0.99244,28.6474 46.35256,28.6475 47.345,10e-5 46.35256,-28.6475 46.35256,-28.6475 l 1.6e-4,-121.35264 -23.04772,0 0,112.54905 c 0,0 -0.55497,14.40319 -23.305,14.40299 -22.75003,-3e-4 -23.304,-14.40299 -23.304,-14.40299 l 0,-112.54905 z m -191.11006,51.212 0,58.77475 c 0,0 0.33197,16.96529 27.44988,16.96529 27.11791,0 27.44988,-16.96479 27.44988,-16.96479 l 0,-58.77538 c 0,0 1.01595,-16.96487 -27.44988,-16.96487 -28.46583,0 -27.44988,16.965 -27.44988,16.965 z" />
    </g>
  </g>
</svg>
